<svg xmlns="http://www.w3.org/2000/svg" viewBox="0 0 32 32" height="48" width="48"><title>content-files-pen</title><g><polygon points="30.48 1.52 28.96 1.52 28.96 0 25.91 0 25.91 1.52 19.81 1.52 19.81 3.05 18.29 3.05 18.29 4.57 16.77 4.57 16.77 6.1 15.24 6.1 15.24 7.62 13.72 7.62 13.72 9.14 12.2 9.14 12.2 10.67 15.24 10.67 15.24 9.14 16.77 9.14 16.77 7.62 18.29 7.62 18.29 6.1 19.81 6.1 19.81 4.57 21.34 4.57 21.34 6.1 19.81 6.1 19.81 7.62 21.34 7.62 21.34 9.14 22.86 9.14 22.86 10.67 24.39 10.67 24.39 12.19 25.91 12.19 25.91 10.67 27.43 10.67 27.43 9.14 28.96 9.14 28.96 7.62 30.48 7.62 30.48 6.1 32 6.1 32 3.05 30.48 3.05 30.48 1.52" fill="#000000"></polygon><rect x="22.86" y="12.19" width="1.53" height="1.53" fill="#000000"></rect><rect x="21.34" y="13.72" width="1.52" height="1.52" fill="#000000"></rect><rect x="19.81" y="15.24" width="1.53" height="1.52" fill="#000000"></rect><rect x="18.29" y="16.76" width="1.52" height="1.53" fill="#000000"></rect><rect x="18.29" y="7.62" width="1.52" height="1.52" fill="#000000"></rect><rect x="16.77" y="18.29" width="1.52" height="1.52" fill="#000000"></rect><rect x="16.77" y="9.14" width="1.52" height="1.53" fill="#000000"></rect><rect x="15.24" y="19.81" width="1.53" height="1.52" fill="#000000"></rect><rect x="15.24" y="10.67" width="1.53" height="1.52" fill="#000000"></rect><rect x="13.72" y="21.33" width="1.52" height="1.53" fill="#000000"></rect><rect x="13.72" y="12.19" width="1.52" height="1.53" fill="#000000"></rect><rect x="12.2" y="13.72" width="1.52" height="1.52" fill="#000000"></rect><polygon points="10.67 28.95 12.2 28.95 12.2 24.38 13.72 24.38 13.72 22.86 10.67 22.86 10.67 28.95" fill="#000000"></polygon><rect x="10.67" y="15.24" width="1.53" height="1.52" fill="#000000"></rect><rect x="9.15" y="21.33" width="1.52" height="1.53" fill="#000000"></rect><rect x="9.15" y="16.76" width="1.52" height="1.53" fill="#000000"></rect><rect x="7.62" y="28.95" width="3.05" height="1.53" fill="#000000"></rect><rect x="4.58" y="24.38" width="3.04" height="3.05" fill="#000000"></rect><polygon points="3.05 30.48 3.05 28.95 1.53 28.95 1.53 24.38 0 24.38 0 32 7.62 32 7.62 30.48 3.05 30.48" fill="#000000"></polygon><polygon points="9.15 21.33 9.15 18.29 7.62 18.29 7.62 19.81 3.05 19.81 3.05 21.33 9.15 21.33" fill="#000000"></polygon><rect x="3.05" y="27.43" width="1.53" height="1.52" fill="#000000"></rect><rect x="1.53" y="21.33" width="1.52" height="3.05" fill="#000000"></rect></g></svg>