<svg xmlns="http://www.w3.org/2000/svg" viewBox="0 0 32 32" height="48" width="48"><title>content-files-pencil-ruler</title><g><rect x="28.955" y="15.24" width="1.52" height="9.14" fill="#000000"></rect><rect x="27.435" y="24.38" width="1.52" height="1.53" fill="#000000"></rect><rect x="27.435" y="13.72" width="1.52" height="1.52" fill="#000000"></rect><rect x="25.905" y="16.76" width="1.53" height="6.1" fill="#000000"></rect><polygon points="27.435 27.43 27.435 25.91 24.385 25.91 24.385 24.38 25.905 24.38 25.905 22.86 24.385 22.86 24.385 16.76 25.905 16.76 25.905 15.24 24.385 15.24 24.385 13.72 27.435 13.72 27.435 12.19 24.385 12.19 24.385 10.67 22.865 10.67 22.865 27.43 27.435 27.43" fill="#000000"></polygon><rect x="19.815" y="27.43" width="3.05" height="1.52" fill="#000000"></rect><rect x="16.765" y="28.95" width="3.05" height="1.53" fill="#000000"></rect><polygon points="19.815 4.57 19.815 3.05 18.285 3.05 18.285 1.52 16.765 1.52 16.765 3.05 15.245 3.05 15.245 4.57 19.815 4.57" fill="#000000"></polygon><rect x="15.245" y="21.33" width="1.52" height="1.53" fill="#000000"></rect><rect x="15.245" y="18.29" width="1.52" height="1.52" fill="#000000"></rect><rect x="9.145" y="30.48" width="7.62" height="1.52" fill="#000000"></rect><rect x="10.675" y="22.86" width="4.57" height="1.52" fill="#000000"></rect><path d="M10.675,12.19H7.625v1.53h10.66V12.19h3.05V10.67h1.53V9.14h-1.53V4.57h-1.52V6.1h-4.57V4.57h-1.53V7.62h-3.04Zm7.61-4.57h1.53v3.05h-1.53Zm-3.04,0h1.52v4.57h-1.52Z" fill="#000000"></path><rect x="9.145" y="21.33" width="1.53" height="1.53" fill="#000000"></rect><rect x="9.145" y="18.29" width="1.53" height="1.52" fill="#000000"></rect><rect x="9.145" y="4.57" width="1.53" height="3.05" fill="#000000"></rect><rect x="6.095" y="28.95" width="3.05" height="1.53" fill="#000000"></rect><polygon points="9.145 10.67 9.145 9.14 6.095 9.14 6.095 10.67 4.575 10.67 4.575 12.19 7.625 12.19 7.625 10.67 9.145 10.67" fill="#000000"></polygon><rect x="7.625" y="1.52" width="1.52" height="3.05" fill="#000000"></rect><rect x="4.575" width="3.05" height="1.52" fill="#000000"></rect><rect x="3.055" y="27.43" width="3.04" height="1.52" fill="#000000"></rect><rect x="3.055" y="1.52" width="1.52" height="1.53" fill="#000000"></rect><polygon points="3.055 10.67 4.575 10.67 4.575 7.62 6.095 7.62 6.095 6.1 3.055 6.1 3.055 9.14 1.525 9.14 1.525 27.43 3.055 27.43 3.055 10.67" fill="#000000"></polygon><rect x="1.525" y="3.05" width="1.53" height="3.05" fill="#000000"></rect></g></svg>