<svg xmlns="http://www.w3.org/2000/svg" viewBox="0 0 32 32" height="48" width="48"><title>interface-essential-switch-off</title><g><rect x="30.48" y="3.05" width="1.52" height="25.9" fill="#626262"></rect><rect x="28.95" y="28.95" width="1.53" height="1.53" fill="#626262"></rect><rect x="28.95" y="1.52" width="1.53" height="1.53" fill="#000000"></rect><rect x="27.43" y="25.9" width="1.52" height="1.53" fill="#000000"></rect><rect x="27.43" y="4.57" width="1.52" height="1.52" fill="#000000"></rect><rect x="3.05" y="30.48" width="25.9" height="1.52" fill="#000000"></rect><polygon points="22.86 6.09 12.19 6.09 12.19 7.62 10.67 7.62 10.67 13.71 12.19 13.71 12.19 12.19 21.34 12.19 21.34 13.71 19.81 13.71 19.81 15.24 18.29 15.24 18.29 16.76 16.76 16.76 16.76 18.28 7.62 18.28 7.62 16.76 6.1 16.76 6.1 21.33 7.62 21.33 7.62 19.81 15.24 19.81 15.24 21.33 7.62 21.33 7.62 22.86 10.67 22.86 10.67 24.38 12.19 24.38 12.19 22.86 18.29 22.86 18.29 21.33 19.81 21.33 19.81 18.28 21.34 18.28 21.34 16.76 22.86 16.76 22.86 24.38 24.38 24.38 24.38 7.62 22.86 7.62 22.86 6.09" fill="#000000"></polygon><rect x="12.19" y="24.38" width="10.67" height="1.52" fill="#000000"></rect><rect x="9.15" y="13.71" width="1.52" height="1.53" fill="#000000"></rect><rect x="7.62" y="15.24" width="1.53" height="1.52" fill="#000000"></rect><rect x="3.05" width="25.9" height="1.52" fill="#000000"></rect><rect x="3.05" y="25.9" width="1.52" height="1.53" fill="#000000"></rect><rect x="3.05" y="4.57" width="1.52" height="1.52" fill="#000000"></rect><rect x="1.53" y="28.95" width="1.52" height="1.53" fill="#000000"></rect><rect x="1.53" y="1.52" width="1.52" height="1.53" fill="#000000"></rect><rect y="3.05" width="1.53" height="25.9" fill="#000000"></rect></g></svg>