<svg xmlns="http://www.w3.org/2000/svg" viewBox="0 0 32 32" height="48" width="48"><title>photography-retouch-wand</title><g><rect x="30.48" y="12.19" width="1.52" height="7.62" fill="#000000"></rect><rect x="28.96" y="19.81" width="1.52" height="3.05" fill="#000000"></rect><rect x="28.96" y="9.15" width="1.52" height="3.04" fill="#000000"></rect><rect x="27.43" y="22.86" width="1.53" height="3.05" fill="#000000"></rect><rect x="27.43" y="6.1" width="1.53" height="3.05" fill="#000000"></rect><rect x="25.91" y="25.91" width="1.52" height="1.52" fill="#000000"></rect><polygon points="27.43 15.24 25.91 15.24 25.91 16.77 24.39 16.77 24.39 18.29 25.91 18.29 25.91 19.81 27.43 19.81 27.43 18.29 28.96 18.29 28.96 16.77 27.43 16.77 27.43 15.24" fill="#000000"></polygon><rect x="25.91" y="4.58" width="1.52" height="1.52" fill="#000000"></rect><rect x="24.39" y="10.67" width="1.52" height="1.52" fill="#000000"></rect><rect x="22.86" y="27.43" width="3.05" height="1.53" fill="#000000"></rect><rect x="22.86" y="21.34" width="1.53" height="1.52" fill="#000000"></rect><rect x="22.86" y="3.05" width="3.05" height="1.53" fill="#000000"></rect><rect x="21.34" y="6.1" width="1.52" height="1.52" fill="#000000"></rect><rect x="19.81" y="28.96" width="3.05" height="1.52" fill="#000000"></rect><rect x="19.81" y="1.53" width="3.05" height="1.52" fill="#000000"></rect><polygon points="19.81 19.81 18.29 19.81 18.29 21.34 16.77 21.34 16.77 22.86 18.29 22.86 18.29 24.38 19.81 24.38 19.81 22.86 21.34 22.86 21.34 21.34 19.81 21.34 19.81 19.81" fill="#000000"></polygon><rect x="12.2" y="30.48" width="7.61" height="1.52" fill="#000000"></rect><rect x="13.72" y="19.81" width="1.52" height="1.53" fill="#000000"></rect><polygon points="13.72 18.29 15.24 18.29 15.24 19.81 16.77 19.81 16.77 18.29 18.29 18.29 18.29 16.77 19.81 16.77 19.81 15.24 21.34 15.24 21.34 13.72 22.86 13.72 22.86 12.19 21.34 12.19 21.34 10.67 19.81 10.67 19.81 9.15 18.29 9.15 18.29 10.67 16.77 10.67 16.77 12.19 15.24 12.19 15.24 13.72 13.72 13.72 13.72 15.24 12.2 15.24 12.2 16.77 13.72 16.77 13.72 18.29" fill="#000000"></polygon><polygon points="15.24 3.05 13.72 3.05 13.72 4.58 12.2 4.58 12.2 6.1 13.72 6.1 13.72 7.62 15.24 7.62 15.24 6.1 16.77 6.1 16.77 4.58 15.24 4.58 15.24 3.05" fill="#000000"></polygon><rect x="12.2" width="7.61" height="1.53" fill="#000000"></rect><rect x="12.2" y="21.34" width="1.52" height="1.52" fill="#000000"></rect><rect x="9.15" y="28.96" width="3.05" height="1.52" fill="#000000"></rect><rect x="10.67" y="22.86" width="1.53" height="1.52" fill="#000000"></rect><rect x="10.67" y="16.77" width="1.53" height="1.52" fill="#000000"></rect><rect x="10.67" y="9.15" width="1.53" height="1.52" fill="#000000"></rect><rect x="9.15" y="1.53" width="3.05" height="1.52" fill="#000000"></rect><rect x="9.15" y="24.38" width="1.52" height="1.53" fill="#000000"></rect><rect x="9.15" y="18.29" width="1.52" height="1.52" fill="#000000"></rect><polygon points="7.62 25.91 7.62 27.43 6.1 27.43 6.1 28.96 9.15 28.96 9.15 25.91 7.62 25.91" fill="#000000"></polygon><rect x="7.62" y="19.81" width="1.53" height="1.53" fill="#000000"></rect><rect x="6.1" y="3.05" width="3.05" height="1.53" fill="#000000"></rect><rect x="6.1" y="21.34" width="1.52" height="1.52" fill="#000000"></rect><polygon points="7.62 9.15 6.1 9.15 6.1 10.67 4.58 10.67 4.58 12.19 6.1 12.19 6.1 13.72 7.62 13.72 7.62 12.19 9.15 12.19 9.15 10.67 7.62 10.67 7.62 9.15" fill="#000000"></polygon><rect x="4.58" y="25.91" width="1.52" height="1.52" fill="#000000"></rect><polygon points="6.1 24.38 6.1 22.86 3.05 22.86 3.05 25.91 4.58 25.91 4.58 24.38 6.1 24.38" fill="#000000"></polygon><rect x="4.58" y="4.58" width="1.52" height="1.52" fill="#000000"></rect><rect x="3.05" y="6.1" width="1.53" height="3.05" fill="#000000"></rect><rect x="1.53" y="19.81" width="1.52" height="3.05" fill="#000000"></rect><rect x="1.53" y="9.15" width="1.52" height="3.04" fill="#000000"></rect><rect y="12.19" width="1.53" height="7.62" fill="#000000"></rect></g></svg>